HIERARCHY
ROOT Hips
{
	OFFSET 0.000000 0.000000 0.000000 
	CHANNELS 6 Xposition Yposition Zposition Zrotation Yrotation Xrotation
	JOINT LeftUpLeg
	{
		OFFSET 1.363060 -1.794630 0.839290 
		CHANNELS 3 Zrotation Yrotation Xrotation
		JOINT LeftLeg
		{
			OFFSET 2.448110 -6.726130 0.000000 
			CHANNELS 3 Zrotation Yrotation Xrotation
			JOINT LeftFoot
			{
				OFFSET 2.562200 -7.039590 0.000000 
				CHANNELS 3 Zrotation Yrotation Xrotation
				JOINT LeftToeBase
				{
					OFFSET 0.157640 -0.433110 2.322550 
					CHANNELS 3 Zrotation Yrotation Xrotation
					End Site
					{
						OFFSET 0.000000 0.000000 0.000000 
					}
				}
			}
		}
	}
	JOINT RightUpLeg
	{
		OFFSET -1.305520 -1.794630 0.839290 
		CHANNELS 3 Zrotation Yrotation Xrotation
		JOINT RightLeg
		{
			OFFSET -2.542530 -6.985550 0.000000 
			CHANNELS 3 Zrotation Yrotation Xrotation
			JOINT RightFoot
			{
				OFFSET -2.568260 -7.056230 0.000000 
				CHANNELS 3 Zrotation Yrotation Xrotation
				JOINT RightToeBase
				{
					OFFSET -0.164730 -0.452590 2.363150 
					CHANNELS 3 Zrotation Yrotation Xrotation
					End Site
					{
						OFFSET 0.000000 0.000000 0.000000 
					}
				}
			}
		}
	}
	JOINT Spine
	{
		OFFSET 0.028270 2.035590 -0.193380 
		CHANNELS 3 Zrotation Yrotation Xrotation
		JOINT Spine1
		{
			OFFSET 0.056720 2.048850 -0.042750 
			CHANNELS 3 Zrotation Yrotation Xrotation
			JOINT Neck1
			{
				OFFSET -0.054170 1.746240 0.172020 
				CHANNELS 3 Zrotation Yrotation Xrotation
				JOINT Head
				{
					OFFSET 0.104070 1.761360 -0.123970 
					CHANNELS 3 Zrotation Yrotation Xrotation
					End Site
					{
						OFFSET 0.000000 0.000000 0.000000 
					}
				}
			}
			JOINT LeftArm
			{
				OFFSET 3.362410 1.200890 -0.311210 
				CHANNELS 3 Zrotation Yrotation Xrotation
				JOINT LeftForeArm
				{
					OFFSET 4.983000 -0.000000 -0.000000 
					CHANNELS 3 Zrotation Yrotation Xrotation
					JOINT LeftHand
					{
						OFFSET 3.483560 -0.000000 -0.000000 
						CHANNELS 3 Zrotation Yrotation Xrotation
						JOINT LeftHandIndex1
						{
							OFFSET 0.715260 -0.000000 -0.000000 
							CHANNELS 3 Zrotation Yrotation Xrotation
							End Site
							{
								OFFSET 0.000000 0.000000 0.000000 
							}
						}
					}
				}
			}
			JOINT RightArm
			{
				OFFSET -3.136600 1.374050 -0.404650 
				CHANNELS 3 Zrotation Yrotation Xrotation
				JOINT RightForeArm
				{
					OFFSET -5.241900 -0.000000 -0.000000 
					CHANNELS 3 Zrotation Yrotation Xrotation
					JOINT RightHand
					{
						OFFSET -3.444170 -0.000000 -0.000000 
						CHANNELS 3 Zrotation Yrotation Xrotation
						JOINT RightHandIndex1
						{
							OFFSET -0.622530 -0.000000 -0.000000 
							CHANNELS 3 Zrotation Yrotation Xrotation
							End Site
							{
								OFFSET 0.000000 0.000000 0.000000 
							}
						}
					}
				}
			}
		}
	}
}
MOTION
Frames: 9
Frame Time: 0.041667
-0.786296 18.320609 5.391859 -4.271971 -2.761206 -1.344557 -10.838631 -10.946664 -5.355546 1.190899 7.072449 23.763127 -0.707411 6.957675 -14.478987 8.499900 -16.474900 -54.344000 21.380691 2.143627 6.872206 0.331555 1.088512 1.672459 0.275397 -5.319687 -13.182554 -0.072600 1.738200 -4.782700 3.199584 -0.016742 31.424750 -3.427694 0.837403 -16.520595 2.509856 -1.433676 25.431717 0.480700 -0.296200 9.224700 -94.245391 5.600109 30.579462 25.262174 -34.992379 -6.606461 0.425880 0.098727 7.440559 -7.125000 0.000000 0.000000 94.844314 -9.692605 23.764892 -32.780999 41.205416 -9.351602 1.058304 -3.188810 12.174347 7.125000 0.000000 0.000000 
-0.785219 18.321099 5.387844 -4.245270 -2.771848 -1.350983 -10.864653 -10.946952 -5.350130 1.186105 7.065440 23.739702 -0.720384 7.003999 -14.457998 8.485900 -16.465300 -54.294700 21.355760 2.156353 6.867291 0.331665 1.088960 1.672423 0.279587 -5.337523 -13.170626 -0.075200 1.769500 -4.869200 3.126729 0.004389 31.440827 -3.417865 0.842895 -16.536000 2.566330 -1.441464 25.431839 0.494300 -0.293700 9.226400 -94.263478 5.579954 30.533009 25.221455 -34.955458 -6.586768 0.424610 0.099082 7.523753 -7.125000 0.000000 0.000000 94.890584 -9.704758 23.672019 -32.794070 41.219065 -9.354743 1.062062 -3.186983 12.263713 7.125000 0.000000 0.000000 
-0.784436 18.321588 5.384809 -4.227276 -2.796982 -1.351535 -10.882879 -10.968048 -5.352238 1.185921 7.071281 23.754381 -0.729440 7.058068 -14.506132 8.477800 -16.459700 -54.265900 21.342478 2.183970 6.860360 0.331861 1.089510 1.672481 0.281369 -5.348754 -13.172362 -0.076100 1.780000 -4.898000 3.061171 0.027976 31.468064 -3.415560 0.849578 -16.534514 2.602365 -1.450562 25.434581 0.501600 -0.293900 9.232100 -94.271260 5.534316 30.507878 25.172239 -34.910161 -6.564861 0.425646 0.097470 7.543556 -7.125000 0.000000 0.000000 94.926082 -9.681169 23.638956 -32.721147 41.156506 -9.308899 1.048796 -3.183855 12.412865 7.125000 0.000000 0.000000 
-0.784044 18.322078 5.381969 -4.280093 -2.842966 -1.339045 -10.839020 -10.974542 -5.363640 1.185340 7.073207 23.760086 -0.728859 7.075803 -14.568640 8.485700 -16.465100 -54.293900 21.390881 2.236583 6.846846 0.332109 1.089240 1.672277 0.280807 -5.350896 -13.182261 -0.073500 1.749300 -4.813400 3.170298 0.016626 31.490731 -3.457504 0.848329 -16.516522 2.551827 -1.433511 25.426750 0.489800 -0.291200 9.236000 -94.297058 5.470680 30.467987 25.107505 -34.849794 -6.536305 0.427222 0.094022 7.577400 -7.125000 0.000000 0.000000 94.934568 -9.659891 23.632412 -32.669664 41.111052 -9.277627 1.039280 -3.182247 12.471642 7.125000 0.000000 0.000000 
-0.783261 18.322470 5.378934 -4.328634 -2.887491 -1.316345 -10.807315 -11.016606 -5.380613 1.185436 7.078297 23.775416 -0.737410 7.128278 -14.622682 8.485800 -16.465200 -54.294300 21.430883 2.294121 6.818725 0.332135 1.088635 1.671755 0.282608 -5.357118 -13.173302 -0.069800 1.705100 -4.691300 3.297272 0.003891 31.506511 -3.495917 0.849005 -16.486877 2.439199 -1.402629 25.392274 0.462900 -0.289200 9.228400 -94.333672 5.428218 30.426596 25.053541 -34.798511 -6.511854 0.427955 0.089641 7.617732 -7.125000 0.000000 0.000000 94.922463 -9.667367 23.623880 -32.670177 41.109470 -9.279115 1.038411 -3.182978 12.473269 7.125000 0.000000 0.000000 
-0.782673 18.322470 5.376290 -4.343000 -2.891400 -1.302675 -10.806168 -11.075064 -5.390481 1.186823 7.082537 23.789764 -0.743019 7.156343 -14.638005 8.468800 -16.453500 -54.234300 21.436225 2.308290 6.794294 0.331962 1.088145 1.671324 0.285432 -5.364857 -13.155357 -0.069300 1.698900 -4.674300 3.388162 -0.014257 31.524485 -3.511472 0.847357 -16.460029 2.313002 -1.382298 25.348243 0.431800 -0.294500 9.215400 -94.363656 5.408803 30.430143 25.040658 -34.786344 -6.504648 0.426737 0.086899 7.610924 -7.125000 0.000000 0.000000 94.894433 -9.669834 23.638867 -32.673489 41.112409 -9.285910 1.041788 -3.185954 12.441775 7.125000 0.000000 0.000000 
-0.782575 18.322176 5.373156 -4.345036 -2.881209 -1.297113 -10.797990 -11.057260 -5.420512 1.188929 7.084169 23.793511 -0.736940 7.119766 -14.603470 8.473200 -16.456500 -54.249900 21.438903 2.301330 6.781895 0.331749 1.087818 1.671127 0.286690 -5.364671 -13.139391 -0.068100 1.683500 -4.631700 3.402183 -0.024509 31.499761 -3.509546 0.841691 -16.472760 2.195305 -1.371782 25.361812 0.398200 -0.300000 9.212300 -94.356290 5.422108 30.461163 25.048407 -34.790873 -6.505853 0.424878 0.087985 7.569122 -7.125000 0.000000 0.000000 94.894100 -9.669862 23.643934 -32.663045 41.109203 -9.286857 1.050469 -3.190510 12.413796 7.125000 0.000000 0.000000 
-0.782967 18.321588 5.369044 -4.317211 -2.889629 -1.314725 -10.813856 -11.031760 -5.424712 1.189199 7.084008 23.791493 -0.732012 7.096144 -14.591032 8.475800 -16.458300 -54.258800 21.418752 2.306379 6.790274 0.331451 1.087956 1.671231 0.283872 -5.348003 -13.140152 -0.062800 1.617000 -4.448300 3.336129 -0.006354 31.481209 -3.495449 0.846325 -16.511184 2.269243 -1.400386 25.384264 0.414900 -0.305400 9.214300 -94.335144 5.433333 30.490556 25.047953 -34.790262 -6.505892 0.425424 0.091683 7.519800 -7.125000 0.000000 0.000000 94.897468 -9.675807 23.676709 -32.638351 41.091555 -9.277018 1.050251 -3.192818 12.413516 7.125000 0.000000 0.000000 
-0.783653 18.321001 5.365323 -4.287905 -2.902540 -1.339677 -10.844849 -11.081684 -5.387818 1.187695 7.082742 23.790018 -0.733861 7.115353 -14.625446 8.443300 -16.435800 -54.144000 21.389824 2.317146 6.801380 0.331072 1.087966 1.671318 0.278389 -5.322846 -13.154531 -0.058400 1.559100 -4.288700 3.330151 0.004095 31.498416 -3.492312 0.855047 -16.530543 2.441270 -1.428502 25.355715 0.464700 -0.304700 9.209700 -94.340537 5.427014 30.486390 25.066728 -34.813295 -6.515446 0.424858 0.093357 7.551052 -7.125000 0.000000 0.000000 94.881757 -9.675870 23.705416 -32.626625 41.080420 -9.271046 1.048784 -3.192844 12.412281 7.125000 0.000000 0.000000 
